<svg xmlns="http://www.w3.org/2000/svg" xmlns:xlink="http://www.w3.org/1999/xlink" width="150" zoomAndPan="magnify" viewBox="0 0 112.5 112.499997" height="150" preserveAspectRatio="xMidYMid meet" version="1.0"><defs><g/><clipPath id="6e3a7a8b99"><path d="M 0 0 L 112.003906 0 L 112.003906 112.003906 L 0 112.003906 Z M 0 0 " clip-rule="nonzero"/></clipPath></defs><g clip-path="url(#6e3a7a8b99)"><path fill="#ffffff" d="M 0 0 L 112.003906 0 L 112.003906 112.003906 L 0 112.003906 Z M 0 0 " fill-opacity="1" fill-rule="nonzero"/><path fill="#004aad" d="M 0 0 L 112.003906 0 L 112.003906 112.003906 L 0 112.003906 Z M 0 0 " fill-opacity="1" fill-rule="nonzero"/></g><path fill="#ffffff" d="M 76.21875 27.15625 C 60.300781 16.011719 38.285156 19.894531 27.140625 35.808594 C 16 51.726562 19.878906 73.738281 35.796875 84.882812 C 51.675781 96.003906 73.703125 92.179688 84.871094 76.230469 C 96.015625 60.3125 92.132812 38.296875 76.21875 27.15625 Z M 82.808594 72.429688 C 74.671875 80.550781 64.355469 78.761719 54.925781 76.476562 C 60.179688 73.761719 63.613281 69.191406 70.511719 68.253906 C 76.140625 68.28125 81.617188 67.222656 86.359375 64.191406 C 85.59375 67.035156 84.414062 69.808594 82.808594 72.429688 Z M 44.277344 74.109375 C 44.21875 74.417969 37.070312 72.132812 32.304688 76.660156 C 29.792969 73.777344 27.871094 70.496094 26.574219 67.007812 C 30.585938 58.136719 45.53125 64.953125 61.671875 67.472656 C 55.480469 71.144531 52.324219 75.894531 44.277344 74.109375 Z M 24.761719 52.691406 C 33.9375 44.25 45.929688 47.394531 57.878906 50.507812 C 52.9375 53.300781 48.574219 57.746094 34.972656 58.773438 C 31 58.757812 27.609375 59.648438 25.207031 62.179688 C 24.589844 59.066406 24.429688 55.867188 24.761719 52.691406 Z M 72.414062 53.230469 C 72.851562 53.363281 72.769531 53.375 72.808594 53.242188 C 78.320312 53.375 82.871094 51.875 86.226562 47.4375 C 87.25 51.058594 87.621094 54.84375 87.316406 58.613281 C 76.863281 68.542969 60.644531 63.507812 46.855469 60.464844 C 56.355469 57.464844 59.015625 52.6875 64.644531 52.15625 C 67.304688 52.726562 69.917969 53.136719 72.414062 53.230469 Z M 84.570312 42.9375 C 75.195312 61.03125 46.507812 34.257812 25.886719 47.054688 C 34.144531 19.238281 72.628906 16.746094 84.570312 42.9375 Z M 34.980469 79.375 C 41.679688 73.277344 59.015625 85.273438 74.480469 81.4375 C 62.820312 89.902344 46.335938 89.585938 34.980469 79.375 Z M 34.980469 79.375 " fill-opacity="1" fill-rule="nonzero"/><g fill="#ffffff" fill-opacity="1"><g transform="translate(21.266234, 59.336279)"><g><path d="M 0.671875 0 L 0.34375 0 L 0.34375 -2.125 L 0.671875 -2.125 Z M 0.3125 -2.703125 C 0.3125 -2.785156 0.328125 -2.84375 0.359375 -2.875 C 0.398438 -2.90625 0.445312 -2.921875 0.5 -2.921875 C 0.550781 -2.921875 0.597656 -2.898438 0.640625 -2.859375 C 0.679688 -2.828125 0.703125 -2.773438 0.703125 -2.703125 C 0.703125 -2.628906 0.679688 -2.578125 0.640625 -2.546875 C 0.597656 -2.515625 0.550781 -2.5 0.5 -2.5 C 0.445312 -2.5 0.398438 -2.515625 0.359375 -2.546875 C 0.328125 -2.578125 0.3125 -2.628906 0.3125 -2.703125 Z M 0.3125 -2.703125 "/></g></g></g></svg>